<svg width="60" height="60" viewBox="0 0 60 60" fill="none" xmlns="http://www.w3.org/2000/svg">
<rect width="59.9537" height="60" rx="29.9769" fill="#DAF070"/>
<path d="M40.3506 29.4275C40.0577 29.4275 39.7769 29.3111 39.5698 29.1038C39.3627 28.8966 39.2464 28.6155 39.2464 28.3225V25.2018C39.2464 20.7816 35.1653 17.2455 30.1478 17.2455C25.1303 17.2455 21.0492 20.8258 21.0492 25.2018V28.3225C21.0492 28.6155 20.9329 28.8966 20.7258 29.1038C20.5187 29.3111 20.2379 29.4275 19.945 29.4275C19.6522 29.4275 19.3713 29.3111 19.1642 29.1038C18.9572 28.8966 18.8408 28.6155 18.8408 28.3225V25.2018C18.8408 19.5793 23.9201 15 30.1478 15C36.3755 15 41.4548 19.5793 41.4548 25.2018V28.3225C41.4559 28.4679 41.4282 28.6121 41.3731 28.7467C41.318 28.8813 41.2367 29.0036 41.134 29.1065C41.0312 29.2093 40.909 29.2907 40.7745 29.3458C40.64 29.4009 40.4959 29.4287 40.3506 29.4275Z" fill="#12141D"/>
<path d="M37.3645 39.8245C37.0717 39.8245 36.7908 39.7081 36.5838 39.5009C36.3767 39.2936 36.2603 39.0125 36.2603 38.7195V28.2259C36.2695 27.939 36.3899 27.667 36.596 27.4673C36.8021 27.2677 37.0777 27.1561 37.3645 27.1563C41.1718 27.1563 44.2724 30.0117 44.2724 33.5125C44.2724 37.0133 41.1718 39.8245 37.3645 39.8245ZM38.4687 29.4459V37.4995C39.4355 37.3393 40.3184 36.853 40.9708 36.1213C41.6232 35.3896 42.0058 34.4565 42.0552 33.4771C42.0078 32.4962 41.626 31.5611 40.9734 30.8276C40.3209 30.094 39.4369 29.6064 38.4687 29.4459ZM22.8952 39.8245C19.0879 39.8245 15.9873 36.9779 15.9873 33.4771C15.9873 29.9763 19.0879 27.1563 22.8952 27.1563C23.188 27.1563 23.4689 27.2727 23.6759 27.4799C23.883 27.6871 23.9994 27.9682 23.9994 28.2613V38.7195C23.9994 39.0125 23.883 39.2936 23.6759 39.5009C23.4689 39.7081 23.188 39.8245 22.8952 39.8245ZM21.791 29.4459C20.8228 29.6064 19.9388 30.094 19.2863 30.8276C18.6337 31.5611 18.2519 32.4962 18.2045 33.4771C18.2539 34.4565 18.6365 35.3896 19.2889 36.1213C19.9413 36.853 20.8242 37.3393 21.791 37.4995V29.4459Z" fill="#12141D"/>
<path d="M37.0035 43.4233H33.3464C33.0535 43.4233 32.7727 43.3068 32.5656 43.0996C32.3585 42.8924 32.2422 42.6113 32.2422 42.3182C32.2422 42.0251 32.3585 41.7441 32.5656 41.5368C32.7727 41.3296 33.0535 41.2132 33.3464 41.2132H37.0035C37.5751 41.2132 38.1234 40.9859 38.5276 40.5814C38.9318 40.1769 39.1589 39.6282 39.1589 39.0561V38.5699C39.1589 38.2768 39.2752 37.9957 39.4823 37.7885C39.6894 37.5813 39.9702 37.4648 40.2631 37.4648C40.5559 37.4648 40.8368 37.5813 41.0439 37.7885C41.2509 37.9957 41.3673 38.2768 41.3673 38.5699V39.0561C41.3673 40.2144 40.9075 41.3252 40.0891 42.1442C39.2708 42.9632 38.1608 43.4233 37.0035 43.4233Z" fill="#12141D"/>
<path d="M31.4559 45.5006H29.274C28.4728 45.5006 27.7043 45.1821 27.1378 44.6151C26.5712 44.0481 26.2529 43.2791 26.2529 42.4772V42.3534C26.2553 41.5531 26.5746 40.7864 27.1409 40.2213C27.7072 39.6562 28.4743 39.3389 29.274 39.3389H31.4559C32.2548 39.3389 33.021 39.6565 33.5859 40.2218C34.1508 40.7872 34.4681 41.5539 34.4681 42.3534V42.4772C34.4682 43.2775 34.1511 44.0452 33.5864 44.612C33.0218 45.1787 32.2556 45.4983 31.4559 45.5006ZM29.2917 41.549C29.0777 41.549 28.8723 41.6334 28.7201 41.784C28.568 41.9347 28.4813 42.1393 28.479 42.3534V42.4772C28.479 42.6929 28.5646 42.8998 28.717 43.0523C28.8694 43.2048 29.0761 43.2905 29.2917 43.2905H31.4559C31.6699 43.2882 31.8744 43.2015 32.0249 43.0492C32.1754 42.8969 32.2598 42.6914 32.2598 42.4772V42.3534C32.2598 42.1401 32.1751 41.9355 32.0243 41.7846C31.8736 41.6337 31.6691 41.549 31.4559 41.549H29.2917Z" fill="#12141D"/>
</svg>
