<svg width="60" height="60" viewBox="0 0 60 60" fill="none" xmlns="http://www.w3.org/2000/svg">
<rect width="59.9537" height="60" rx="29.9769" fill="#DAF070"/>
<path d="M29.6914 15C25.516 15 22.1972 18.3214 22.1972 22.5V23.5714C20.3771 23.5714 18.9854 24.9643 18.9854 26.7857V34.2857C18.9854 40.1786 23.8031 45 29.6914 45C35.5797 45 40.3974 40.1786 40.3974 34.2857V26.7857C40.3974 24.9643 39.0056 23.5714 37.1856 23.5714V22.5C37.1856 18.3214 33.8667 15 29.6914 15ZM38.2562 26.7857V34.2857C38.2562 39 34.402 42.8571 29.6914 42.8571C24.9807 42.8571 21.1266 39 21.1266 34.2857V26.7857C21.1266 26.1429 21.5548 25.7143 22.1972 25.7143H23.2678H36.115H37.1856C37.828 25.7143 38.2562 26.1429 38.2562 26.7857ZM24.3384 23.5714V22.5C24.3384 19.5 26.6937 17.1429 29.6914 17.1429C32.6891 17.1429 35.0444 19.5 35.0444 22.5V23.5714H24.3384Z" fill="#12141D"/>
<path d="M28.8359 31.8217H32.3689C33.0113 31.8217 33.4395 31.3931 33.4395 30.7503C33.4395 30.1074 33.0113 29.6789 32.3689 29.6789H30.763V28.9289C30.763 28.286 30.3348 27.8574 29.6924 27.8574C29.0501 27.8574 28.6218 28.286 28.6218 28.9289V29.6789C27.123 29.786 25.9453 30.9646 25.9453 32.4646C25.9453 34.0717 27.23 35.3574 28.8359 35.3574H30.656C31.0842 35.3574 31.4054 35.6789 31.4054 36.1074C31.4054 36.536 31.0842 36.8574 30.656 36.8574H27.123C26.4806 36.8574 26.0524 37.286 26.0524 37.9289C26.0524 38.5717 26.4806 39.0003 27.123 39.0003H28.6218V39.6431C28.6218 40.286 29.0501 40.7146 29.6924 40.7146C30.3348 40.7146 30.763 40.286 30.763 39.6431V38.8931C32.2619 38.786 33.4395 37.6074 33.4395 36.1074C33.4395 34.5003 32.1548 33.2146 30.5489 33.2146H28.7289C28.3006 33.2146 27.9795 32.8931 27.9795 32.4646C28.0865 32.1431 28.4077 31.8217 28.8359 31.8217Z" fill="#12141D"/>
</svg>
